{
  "accessors": {
    "accessor_55": {
      "bufferView": "bufferView_1",
      "byteOffset": 0,
      "byteStride": 0,
      "componentType": 5123,
      "count": 1434,
      "type": "SCALAR",
      "min": [
        0
      ],
      "max": [
        1433
      ]
    },
    "accessor_58": {
      "bufferView": "bufferView_1",
      "byteOffset": 2868,
      "byteStride": 0,
      "componentType": 5123,
      "count": 2178,
      "type": "SCALAR",
      "min": [
        1434
      ],
      "max": [
        3611
      ]
    },
    "accessor_61": {
      "bufferView": "bufferView_1",
      "byteOffset": 7224,
      "byteStride": 0,
      "componentType": 5123,
      "count": 1296,
      "type": "SCALAR",
      "min": [
        3612
      ],
      "max": [
        4907
      ]
    },
    "accessor_63": {
      "bufferView": "bufferView_0",
      "byteOffset": 0,
      "byteStride": 0,
      "componentType": 5126,
      "count": 3141,
      "max": [
        1.6624499559402466,
        4.861849784851074,
        9.306960105895996
      ],
      "min": [
        -1.6672999858856201,
        1.532099962234497,
        -1.5778599977493286
      ],
      "type": "VEC3"
    },
    "accessor_65": {
      "bufferView": "bufferView_0",
      "byteOffset": 37692,
      "byteStride": 0,
      "componentType": 5126,
      "count": 3141,
      "max": [
        0.9951850175857544,
        0.9951850175857544,
        1
      ],
      "min": [
        -0.9951850175857544,
        -0.9951850175857544,
        -1
      ],
      "type": "VEC3"
    }
  },
  "animations": {},
  "asset": {
    "generator": "collada2gltf@",
    "premultipliedAlpha": true,
    "profile": {
      "api": "WebGL",
      "version": "1.0.2"
    },
    "version": "0.8"
  },
  "bufferViews": {
    "bufferView_0": {
      "buffer": "buffer_0",
      "byteLength": 75384,
      "byteOffset": 0,
      "target": 34962
    },
    "bufferView_1": {
      "buffer": "buffer_0",
      "byteLength": 9816,
      "byteOffset": 75384,
      "target": 34963
    }
  },
  "buffers": {
    "buffer_0": {
      "type": "arraybuffer",
      "byteLength": 85200,
      "uri": "data:application/octet-stream;base64,"
    }
  },
  "materials": {
    "Material_001-effect": {
      "name": "Material_001",
      "technique": "technique0",
      "values": {
        "ambient": [
          0,
          0,
          0,
          1
        ],
        "diffuse": [
          0.6399999856948853,
          0.6399999856948853,
          0.6399999856948853,
          1
        ],
        "emission": [
          0,
          0,
          0,
          1
        ],
        "shininess": 50,
        "specular": [
          0.5,
          0.5,
          0.5,
          1
        ]
      }
    },
    "Material_002-effect": {
      "name": "Material_002",
      "technique": "technique0",
      "values": {
        "ambient": [
          0,
          0,
          0,
          1
        ],
        "diffuse": [
          0.6399999856948853,
          0.6399999856948853,
          0.6399999856948853,
          1
        ],
        "emission": [
          0,
          0,
          0,
          1
        ],
        "shininess": 50,
        "specular": [
          0.5,
          0.5,
          0.5,
          1
        ]
      }
    },
    "Material_004-effect": {
      "name": "Material_004",
      "technique": "technique0",
      "values": {
        "ambient": [
          0,
          0,
          0,
          1
        ],
        "diffuse": [
          0.6399999856948853,
          0.6399999856948853,
          0.6399999856948853,
          1
        ],
        "emission": [
          0,
          0,
          0,
          1
        ],
        "shininess": 50,
        "specular": [
          0.5,
          0.5,
          0.5,
          1
        ]
      }
    }
  },
  "meshes": {
    "Cylinder_001-mesh": {
      "name": "Cylinder.001",
      "primitives": [
        {
          "attributes": {
            "NORMAL": "accessor_65",
            "POSITION": "accessor_63"
          },
          "indices": "accessor_55",
          "material": "Material_002-effect",
          "primitive": 4,
          "mode": 4
        },
        {
          "attributes": {
            "NORMAL": "accessor_65",
            "POSITION": "accessor_63"
          },
          "indices": "accessor_58",
          "material": "Material_004-effect",
          "primitive": 4,
          "mode": 4
        },
        {
          "attributes": {
            "NORMAL": "accessor_65",
            "POSITION": "accessor_63"
          },
          "indices": "accessor_61",
          "material": "Material_001-effect",
          "primitive": 4,
          "mode": 4
        }
      ]
    }
  },
  "nodes": {
    "Cylinder_001": {
      "children": [],
      "matrix": [
        6.368779850163264e-7,
        0,
        -3.2709498405456543,
        0,
        0.23062799870967865,
        -3.262809991836548,
        4.49047981021522e-8,
        0,
        -3.262809991836548,
        -0.23062799870967865,
        -6.352930199682305e-7,
        0,
        9.726499557495117,
        0.22222900390625,
        7.138179779052734,
        1
      ],
      "meshes": [
        "Cylinder_001-mesh"
      ],
      "name": "Cylinder_001"
    },
    "node_1": {
      "children": [
        "Cylinder_001"
      ],
      "matrix": [
        1,
        0,
        0,
        0,
        0,
        0,
        -1,
        0,
        0,
        1,
        0,
        0,
        0,
        0,
        0,
        1
      ],
      "name": "Y_UP_Transform"
    }
  },
  "programs": {
    "program_0": {
      "attributes": [
        "a_normal",
        "a_position"
      ],
      "fragmentShader": "input0FS",
      "vertexShader": "input0VS"
    }
  },
  "scene": "defaultScene",
  "scenes": {
    "defaultScene": {
      "nodes": [
        "node_1"
      ]
    }
  },
  "shaders": {
    "input0FS": {
      "type": 35632,
      "uri": "data:text/plain;base64,"
    },
    "input0VS": {
      "type": 35633,
      "uri": "data:text/plain;base64,"
    }
  },
  "skins": {},
  "techniques": {
    "technique0": {
      "parameters": {
        "ambient": {
          "type": 35666
        },
        "diffuse": {
          "type": 35666
        },
        "emission": {
          "type": 35666
        },
        "modelViewMatrix": {
          "semantic": "MODELVIEW",
          "type": 35676
        },
        "normal": {
          "semantic": "NORMAL",
          "type": 35665
        },
        "normalMatrix": {
          "semantic": "MODELVIEWINVERSETRANSPOSE",
          "type": 35675
        },
        "position": {
          "semantic": "POSITION",
          "type": 35665
        },
        "projectionMatrix": {
          "semantic": "PROJECTION",
          "type": 35676
        },
        "shininess": {
          "type": 5126
        },
        "specular": {
          "type": 35666
        }
      },
      "attributes": {
        "a_normal": "normal",
        "a_position": "position"
      },
      "program": "program_0",
      "uniforms": {
        "u_ambient": "ambient",
        "u_diffuse": "diffuse",
        "u_emission": "emission",
        "u_modelViewMatrix": "modelViewMatrix",
        "u_normalMatrix": "normalMatrix",
        "u_projectionMatrix": "projectionMatrix",
        "u_shininess": "shininess",
        "u_specular": "specular"
      },
      "states": {
        "enable": [
          2929
        ],
        "disable": []
      }
    }
  },
  "extensionsUsed": [],
  "cameras": {},
  "images": {},
  "extensions": {
    "KHR_materials_common": {
      "lights": {}
    }
  },
  "samplers": {},
  "textures": {}
}
